{"buffers":[{"uri":"Sensor_Plate v6.bin","byteLength":992904}],"asset":{"version":"2.0","generator":"gltfpack 0.16"},"bufferViews":[{"buffer":0,"byteOffset":0,"byteLength":397848,"byteStride":12,"target":34962},{"buffer":0,"byteOffset":397848,"byteLength":397848,"byteStride":12,"target":34962},{"buffer":0,"byteOffset":795696,"byteLength":197208,"target":34963}],"accessors":[{"bufferView":0,"byteOffset":0,"componentType":5126,"count":1100,"type":"VEC3","min":[0,0,0],"max":[16,22,0.5]},{"bufferView":1,"byteOffset":0,"componentType":5126,"count":1100,"type":"VEC3"},{"bufferView":2,"byteOffset":0,"componentType":5123,"count":3420,"type":"SCALAR"},{"bufferView":0,"byteOffset":13200,"componentType":5126,"count":560,"type":"VEC3","min":[5.00000048,0,2],"max":[11,6,2.5]},{"bufferView":1,"byteOffset":13200,"componentType":5126,"count":560,"type":"VEC3"},{"bufferView":2,"byteOffset":6840,"componentType":5123,"count":1740,"type":"SCALAR"},{"bufferView":0,"byteOffset":19920,"componentType":5126,"count":10430,"type":"VEC3","min":[5.57115602,9.31331158,2.54999995],"max":[11.7486887,16.3989601,8.74499989]},{"bufferView":1,"byteOffset":19920,"componentType":5126,"count":10430,"type":"VEC3"},{"bufferView":2,"byteOffset":10320,"componentType":5123,"count":30198,"type":"SCALAR"},{"bufferView":0,"byteOffset":145080,"componentType":5126,"count":336,"type":"VEC3","min":[4.10394096,10.0705023,4.65999985],"max":[11.8965168,17.859005,7.56000042]},{"bufferView":1,"byteOffset":145080,"componentType":5126,"count":336,"type":"VEC3"},{"bufferView":2,"byteOffset":70716,"componentType":5123,"count":1002,"type":"SCALAR"},{"bufferView":0,"byteOffset":149112,"componentType":5126,"count":3511,"type":"VEC3","min":[3.65023923,9.75456238,2.54999995],"max":[12.3502188,17.859005,8.68500042]},{"bufferView":1,"byteOffset":149112,"componentType":5126,"count":3511,"type":"VEC3"},{"bufferView":2,"byteOffset":72720,"componentType":5123,"count":9615,"type":"SCALAR"},{"bufferView":0,"byteOffset":191244,"componentType":5126,"count":4003,"type":"VEC3","min":[3.98111749,9.94602871,7.56000042],"max":[12.0193405,17.984251,9.89999962]},{"bufferView":1,"byteOffset":191244,"componentType":5126,"count":4003,"type":"VEC3"},{"bufferView":2,"byteOffset":91950,"componentType":5123,"count":11277,"type":"SCALAR"},{"bufferView":0,"byteOffset":239280,"componentType":5126,"count":1280,"type":"VEC3","min":[5.63143015,9.42331123,3.04150248],"max":[10.237009,16.3307457,8.68500042]},{"bufferView":1,"byteOffset":239280,"componentType":5126,"count":1280,"type":"VEC3"},{"bufferView":2,"byteOffset":114504,"componentType":5123,"count":3630,"type":"SCALAR"},{"bufferView":0,"byteOffset":254640,"componentType":5126,"count":5562,"type":"VEC3","min":[2.5,8.48330021,0.499977112],"max":[13.5,19.4833012,2.54997706]},{"bufferView":1,"byteOffset":254640,"componentType":5126,"count":5562,"type":"VEC3"},{"bufferView":2,"byteOffset":121764,"componentType":5123,"count":16290,"type":"SCALAR"},{"bufferView":0,"byteOffset":321384,"componentType":5126,"count":857,"type":"VEC3","min":[3.35000014,17.2327442,-1.30002284],"max":[4.6500001,18.7338562,1.72997713]},{"bufferView":1,"byteOffset":321384,"componentType":5126,"count":857,"type":"VEC3"},{"bufferView":2,"byteOffset":154344,"componentType":5123,"count":3186,"type":"SCALAR"},{"bufferView":0,"byteOffset":331668,"componentType":5126,"count":857,"type":"VEC3","min":[11.3500004,17.2327442,-1.30002284],"max":[12.6499996,18.7338562,1.72997713]},{"bufferView":1,"byteOffset":331668,"componentType":5126,"count":857,"type":"VEC3"},{"bufferView":2,"byteOffset":160716,"componentType":5123,"count":3186,"type":"SCALAR"},{"bufferView":0,"byteOffset":341952,"componentType":5126,"count":857,"type":"VEC3","min":[11.3500004,9.23274517,-1.30002284],"max":[12.6499996,10.7338552,1.72997713]},{"bufferView":1,"byteOffset":341952,"componentType":5126,"count":857,"type":"VEC3"},{"bufferView":2,"byteOffset":167088,"componentType":5123,"count":3186,"type":"SCALAR"},{"bufferView":0,"byteOffset":352236,"componentType":5126,"count":857,"type":"VEC3","min":[3.35000014,9.23274517,-1.30002284],"max":[4.6500001,10.7338552,1.72997713]},{"bufferView":1,"byteOffset":352236,"componentType":5126,"count":857,"type":"VEC3"},{"bufferView":2,"byteOffset":173460,"componentType":5123,"count":3186,"type":"SCALAR"},{"bufferView":0,"byteOffset":362520,"componentType":5126,"count":736,"type":"VEC3","min":[3.35000014,17.2327442,-0.400000006],"max":[4.6500001,18.7338562,0]},{"bufferView":1,"byteOffset":362520,"componentType":5126,"count":736,"type":"VEC3"},{"bufferView":2,"byteOffset":179832,"componentType":5123,"count":2172,"type":"SCALAR"},{"bufferView":0,"byteOffset":371352,"componentType":5126,"count":736,"type":"VEC3","min":[11.3500004,17.2327442,-0.400000006],"max":[12.6499996,18.7338562,0]},{"bufferView":1,"byteOffset":371352,"componentType":5126,"count":736,"type":"VEC3"},{"bufferView":2,"byteOffset":184176,"componentType":5123,"count":2172,"type":"SCALAR"},{"bufferView":0,"byteOffset":380184,"componentType":5126,"count":736,"type":"VEC3","min":[11.3500004,9.23274517,-0.400000006],"max":[12.6499996,10.7338552,0]},{"bufferView":1,"byteOffset":380184,"componentType":5126,"count":736,"type":"VEC3"},{"bufferView":2,"byteOffset":188520,"componentType":5123,"count":2172,"type":"SCALAR"},{"bufferView":0,"byteOffset":389016,"componentType":5126,"count":736,"type":"VEC3","min":[3.35000014,9.23274517,-0.400000006],"max":[4.6500001,10.7338552,0]},{"bufferView":1,"byteOffset":389016,"componentType":5126,"count":736,"type":"VEC3"},{"bufferView":2,"byteOffset":192864,"componentType":5123,"count":2172,"type":"SCALAR"}],"materials":[{"pbrMetallicRoughness":{"baseColorFactor":[0.627451003,0.627451003,0.627451003,1],"metallicFactor":0},"doubleSided":true},{"pbrMetallicRoughness":{"baseColorFactor":[0.792156875,0.819607854,0.933333337,1],"metallicFactor":0},"doubleSided":true},{"pbrMetallicRoughness":{"baseColorFactor":[0.250980407,0.250980407,0.250980407,1],"metallicFactor":0},"doubleSided":true},{"pbrMetallicRoughness":{"baseColorFactor":[0.866666675,0.866666675,0.890196085,1],"metallicFactor":0},"doubleSided":true},{"pbrMetallicRoughness":{"baseColorFactor":[0.898039222,0.917647064,0.929411769,1],"metallicFactor":0},"doubleSided":true},{"pbrMetallicRoughness":{"baseColorFactor":[0.776470602,0.75686276,0.737254918,1],"metallicFactor":0},"doubleSided":true},{"pbrMetallicRoughness":{"baseColorFactor":[0.796078444,0.796078444,0.796078444,1],"metallicFactor":0},"doubleSided":true}],"meshes":[{"primitives":[{"attributes":{"POSITION":0,"NORMAL":1},"mode":4,"indices":2,"material":0}]},{"primitives":[{"attributes":{"POSITION":3,"NORMAL":4},"mode":4,"indices":5,"material":0}]},{"primitives":[{"attributes":{"POSITION":6,"NORMAL":7},"mode":4,"indices":8,"material":1},{"attributes":{"POSITION":9,"NORMAL":10},"mode":4,"indices":11,"material":2},{"attributes":{"POSITION":12,"NORMAL":13},"mode":4,"indices":14,"material":3},{"attributes":{"POSITION":15,"NORMAL":16},"mode":4,"indices":17,"material":4},{"attributes":{"POSITION":18,"NORMAL":19},"mode":4,"indices":20,"material":5}]},{"primitives":[{"attributes":{"POSITION":21,"NORMAL":22},"mode":4,"indices":23,"material":4}]},{"primitives":[{"attributes":{"POSITION":24,"NORMAL":25},"mode":4,"indices":26,"material":0}]},{"primitives":[{"attributes":{"POSITION":27,"NORMAL":28},"mode":4,"indices":29,"material":0}]},{"primitives":[{"attributes":{"POSITION":30,"NORMAL":31},"mode":4,"indices":32,"material":0}]},{"primitives":[{"attributes":{"POSITION":33,"NORMAL":34},"mode":4,"indices":35,"material":0}]},{"primitives":[{"attributes":{"POSITION":36,"NORMAL":37},"mode":4,"indices":38,"material":6}]},{"primitives":[{"attributes":{"POSITION":39,"NORMAL":40},"mode":4,"indices":41,"material":6}]},{"primitives":[{"attributes":{"POSITION":42,"NORMAL":43},"mode":4,"indices":44,"material":6}]},{"primitives":[{"attributes":{"POSITION":45,"NORMAL":46},"mode":4,"indices":47,"material":6}]}],"nodes":[{"mesh":0},{"mesh":1},{"mesh":2},{"mesh":3},{"mesh":4},{"mesh":5},{"mesh":6},{"mesh":7},{"mesh":8},{"mesh":9},{"mesh":10},{"mesh":11},{"matrix":[1,0,0,0,0,-1.83690953e-16,-1,0,0,1,-1.83690953e-16,0,0,0,0,1],"children":[0]},{"matrix":[1,0,0,0,0,-1.83690953e-16,-1,0,0,1,-1.83690953e-16,0,0,0,0,1],"children":[1]},{"name":"840-103575-06-SensorAssemblyOS1 v1","matrix":[1,0,0,0,0,-1.83690953e-16,-1,0,0,1,-1.83690953e-16,0,0,0,0,1],"children":[2]},{"name":"OS01-BasePlate_beforeJun2021 v1","matrix":[1,0,0,0,0,-1.83690953e-16,-1,0,0,1,-1.83690953e-16,0,0,0,0,1],"children":[3]},{"name":"Fit Bolt DIN 609 - M8 x 25 Steel 4.6 Plain v1","matrix":[1,0,0,0,0,-1.83690953e-16,-1,0,0,1,-1.83690953e-16,0,0,0,0,1],"children":[4]},{"name":"Fit Bolt DIN 609 - M8 x 25 Steel 4.6 Plain v1","matrix":[1,0,0,0,0,-1.83690953e-16,-1,0,0,1,-1.83690953e-16,0,0,0,0,1],"children":[5]},{"name":"Fit Bolt DIN 609 - M8 x 25 Steel 4.6 Plain v1","matrix":[1,0,0,0,0,-1.83690953e-16,-1,0,0,1,-1.83690953e-16,0,0,0,0,1],"children":[6]},{"name":"Fit Bolt DIN 609 - M8 x 25 Steel 4.6 Plain v1","matrix":[1,0,0,0,0,-1.83690953e-16,-1,0,0,1,-1.83690953e-16,0,0,0,0,1],"children":[7]},{"name":"Hexagon Nut BS 4183 - M8 Steel 6 Plain v1","matrix":[1,0,0,0,0,-1.83690953e-16,-1,0,0,1,-1.83690953e-16,0,0,0,0,1],"children":[8]},{"name":"Hexagon Nut BS 4183 - M8 Steel 6 Plain v1","matrix":[1,0,0,0,0,-1.83690953e-16,-1,0,0,1,-1.83690953e-16,0,0,0,0,1],"children":[9]},{"name":"Hexagon Nut BS 4183 - M8 Steel 6 Plain v1","matrix":[1,0,0,0,0,-1.83690953e-16,-1,0,0,1,-1.83690953e-16,0,0,0,0,1],"children":[10]},{"name":"Hexagon Nut BS 4183 - M8 Steel 6 Plain v1","matrix":[1,0,0,0,0,-1.83690953e-16,-1,0,0,1,-1.83690953e-16,0,0,0,0,1],"children":[11]}],"scenes":[{"nodes":[12,13,14,15,16,17,18,19,20,21,22,23]}]}